<?xml version="1.0" standalone="no"?><!DOCTYPE svg PUBLIC "-//W3C//DTD SVG 1.1//EN" "http://www.w3.org/Graphics/SVG/1.1/DTD/svg11.dtd"><svg width="200" height="200" viewBox="0 0 200 200" version="1.1" xmlns="http://www.w3.org/2000/svg" xmlns:xlink="http://www.w3.org/1999/xlink"><defs><style type="text/css"><![CDATA[
@font-face { font-family: ifont; src: url("//at.alicdn.com/t/font_1442373896_4754455.eot?#iefix") format("embedded-opentype"), url("//at.alicdn.com/t/font_1442373896_4754455.woff") format("woff"), url("//at.alicdn.com/t/font_1442373896_4754455.ttf") format("truetype"), url("//at.alicdn.com/t/font_1442373896_4754455.svg#ifont") format("svg"); }

]]></style></defs><g class="transform-group"><g transform="scale(0.1953125, 0.1953125)"><path d="M534.755556 959.533511C302.262044 959.533511 113.777778 771.072 113.777778 538.578489 113.777778 306.062222 302.262044 117.577956 534.755556 117.577956S955.733333 306.062222 955.733333 538.578489C955.733333 771.072 767.249067 959.533511 534.755556 959.533511zM745.312711 472.337067l-186.390756-186.390756 0-0.022756 0 0 0 0c-13.312-13.334756-34.929778-13.334756-48.287289 0-0.022756 0.045511-0.022756 0.068267-0.068267 0.091022l-186.322489 186.322489c-13.334756 13.334756-13.334756 34.952533 0 48.287289s34.952533 13.334756 48.287289 0L500.622222 392.487822l0 350.867911c0 18.864356 15.268978 34.133333 34.133333 34.133333s34.133333-15.268978 34.133333-34.133333L568.888889 392.442311l128.159289 128.159289c13.312 13.334756 34.929778 13.334756 48.264533 0.022756C758.647467 507.266844 758.647467 485.649067 745.312711 472.337067z" fill="#0bc2b4"></path></g></g></svg>