<?xml version="1.0" standalone="no"?><!DOCTYPE svg PUBLIC "-//W3C//DTD SVG 1.1//EN" "http://www.w3.org/Graphics/SVG/1.1/DTD/svg11.dtd"><svg t="1493176646184" class="icon" style="" viewBox="0 0 1024 1024" version="1.1" xmlns="http://www.w3.org/2000/svg" p-id="7457" xmlns:xlink="http://www.w3.org/1999/xlink" width="200" height="200"><defs><style type="text/css"></style></defs><path d="M124.18198 290.367354c-0.449939-6.544808 1.576081-13.181414 6.591354-18.172121L320.196525 82.746182c6.424566-6.449131 15.489293-7.858424 23.561051-5.176889l39.333495 0 47.070384 0L830.293333 77.569293c38.999919 0 70.610747 31.631515 70.610747 70.610747l0 729.646545c0 39.005091-31.610828 70.61204-70.610747 70.61204L194.792727 948.438626c-38.999919 0-70.610747-31.606949-70.610747-70.61204L124.18198 383.548768l0-47.070384L124.18198 290.367354 124.18198 290.367354zM359.550707 360.013576 171.257535 360.013576l0 23.535192 0 470.742626c0 25.986586 21.086384 47.075556 47.070384 47.075556l588.428929 0c25.985293 0 47.070384-21.090263 47.070384-47.075556L853.827232 171.716525c0-25.985293-21.086384-47.071677-47.070384-47.071677L430.161455 124.644848l-47.070384 0 0 211.833535C383.091071 349.494303 372.565333 360.013576 359.550707 360.013576L359.550707 360.013576zM336.015515 133.514343 171.257535 298.276202l0 14.661818 164.75798 0L336.015515 133.514343 336.015515 133.514343zM336.015515 133.514343" p-id="7458" fill="#666666"></path></svg>