<?xml version="1.0" standalone="no"?><!DOCTYPE svg PUBLIC "-//W3C//DTD SVG 1.1//EN" "http://www.w3.org/Graphics/SVG/1.1/DTD/svg11.dtd"><svg t="1492570551588" class="icon" style="" viewBox="0 0 1024 1024" version="1.1" xmlns="http://www.w3.org/2000/svg" p-id="3998" xmlns:xlink="http://www.w3.org/1999/xlink" width="200" height="200"><defs><style type="text/css"></style></defs><path d="M511.171122 64.047712c-241.874793 0-437.954587 171.568541-437.954587 383.207705 0 120.955816 64.199161 228.65163 164.232458 298.882158l0 193.819311L429.311743 823.533292c26.547633 4.399193 53.851489 6.931876 81.858356 6.931876 241.874793 0 437.954587-171.566494 437.954587-383.209752C949.125709 235.616252 753.045915 64.047712 511.171122 64.047712zM511.170099 766.507508c-23.068392 0-47.092551-2.042519-71.402213-6.071276l-23.376407-3.874237-114.983801 69.77311L301.407678 712.893426l-27.207665-19.102057C187.117678 632.653941 137.174196 542.795377 137.174196 447.255417c0-176.035272 167.774121-319.250044 373.996926-319.250044 206.222805 0 373.996926 143.214772 373.996926 319.250044C885.168048 623.291712 717.393927 766.507508 511.170099 766.507508z" fill="#d81e06" p-id="3999"></path><path d="M321.323263 446.423469m-62.507636 0a61.084 61.084 0 1 0 125.015272 0 61.084 61.084 0 1 0-125.015272 0Z" fill="#d81e06" p-id="4000"></path><path d="M513.450025 446.423469m-62.507636 0a61.084 61.084 0 1 0 125.015272 0 61.084 61.084 0 1 0-125.015272 0Z" fill="#d81e06" p-id="4001"></path><path d="M705.575764 448.470081m-62.507636 0a61.084 61.084 0 1 0 125.015272 0 61.084 61.084 0 1 0-125.015272 0Z" fill="#d81e06" p-id="4002"></path></svg>